HIERARCHY
ROOT Hips
{
	OFFSET 0.000000 0.000000 0.000000
	CHANNELS 6 Xposition Yposition Zposition Xrotation Yrotation Zrotation
	JOINT LeftUpLeg_virtual
	{
		OFFSET 0.000000 0.000000 0.000000
		CHANNELS 3 Xrotation Yrotation Zrotation
		JOINT LeftUpLeg
		{
			OFFSET 10.205400 -3.823500 0.155100
			CHANNELS 3 Xrotation Yrotation Zrotation
			JOINT LeftLeg
			{
				OFFSET 0.708757 -12.982077 0.567790
				CHANNELS 3 Xrotation Yrotation Zrotation
				JOINT LeftFoot
				{
					OFFSET -0.708756 -10.717838 -2.184338
					CHANNELS 3 Xrotation Yrotation Zrotation
					JOINT LeftToeBase
					{
						OFFSET 0.108149 -7.191104 7.560241
						CHANNELS 3 Xrotation Yrotation Zrotation
						JOINT LeftToe_End
						{
							OFFSET 0.070230 0.081724 4.490308
							CHANNELS 3 Xrotation Yrotation Zrotation
							End Site
							{
								OFFSET 0 0 0
							}
						}
					}
				}
			}
		}
	}
	JOINT RightUpLeg_virtual
	{
		OFFSET 0.000000 0.000000 0.000000
		CHANNELS 3 Xrotation Yrotation Zrotation
		JOINT RightUpLeg
		{
			OFFSET -10.205400 -3.823500 0.005500
			CHANNELS 3 Xrotation Yrotation Zrotation
			JOINT RightLeg
			{
				OFFSET -0.708756 -12.982134 0.610632
				CHANNELS 3 Xrotation Yrotation Zrotation
				JOINT RightFoot
				{
					OFFSET 0.708754 -10.717769 -1.945823
					CHANNELS 3 Xrotation Yrotation Zrotation
					JOINT RightToeBase
					{
						OFFSET -0.108140 -7.191069 7.372968
						CHANNELS 3 Xrotation Yrotation Zrotation
						JOINT RightToe_End
						{
							OFFSET -0.070227 0.081735 4.479403
							CHANNELS 3 Xrotation Yrotation Zrotation
							End Site
							{
								OFFSET 0 0 0
							}
						}
					}
				}
			}
		}
	}
	JOINT Spine_virtual
	{
		OFFSET 0.000000 0.000000 0.000000
		CHANNELS 3 Xrotation Yrotation Zrotation
		JOINT Spine
		{
			OFFSET 0.000000 6.876099 0.125700
			CHANNELS 3 Xrotation Yrotation Zrotation
			JOINT Spine1
			{
				OFFSET 0.000000 5.730043 0.104720
				CHANNELS 3 Xrotation Yrotation Zrotation
				JOINT Spine1_split
				{
					OFFSET 0.000000 5.730043 0.104720
					CHANNELS 3 Xrotation Yrotation Zrotation
					JOINT Spine2
					{
						OFFSET 0.000000 5.730043 0.104720
						CHANNELS 3 Xrotation Yrotation Zrotation
						JOINT Neck_virtual
						{
							OFFSET 0.000000 0.000000 0.000000
							CHANNELS 3 Xrotation Yrotation Zrotation
							JOINT Neck
							{
								OFFSET 0.000000 10.314075 0.188496
								CHANNELS 3 Xrotation Yrotation Zrotation
								JOINT Head
								{
									OFFSET 0.000000 7.643700 -2.377400
									CHANNELS 3 Xrotation Yrotation Zrotation
									JOINT HeadTop_End
									{
										OFFSET 0.000000 43.788605 -13.619600
										CHANNELS 3 Xrotation Yrotation Zrotation
										End Site
										{
											OFFSET 0 0 0
										}
									}
								}
							}
						}
						JOINT LeftShoulder_virtual
						{
							OFFSET 0.000000 0.000000 0.000000
							CHANNELS 3 Xrotation Yrotation Zrotation
							JOINT LeftShoulder
							{
								OFFSET 2.196100 4.412489 0.087492
								CHANNELS 3 Xrotation Yrotation Zrotation
								JOINT LeftShoulder_split
								{
									OFFSET 2.196100 4.412489 0.087492
									CHANNELS 3 Xrotation Yrotation Zrotation
									JOINT LeftArm
									{
										OFFSET 8.771219 -2.981674 -0.026999
										CHANNELS 3 Xrotation Yrotation Zrotation
										JOINT LeftForeArm
										{
											OFFSET 8.512804 0.000000 -0.000000
											CHANNELS 3 Xrotation Yrotation Zrotation
											JOINT LeftHand
											{
												OFFSET 18.484802 0.000000 -0.000000
												CHANNELS 3 Xrotation Yrotation Zrotation
												End Site
												{
													OFFSET 0 0 0
												}
											}
										}
									}
								}
							}
						}
						JOINT RightShoulder_virtual
						{
							OFFSET 0.000000 0.000000 0.000000
							CHANNELS 3 Xrotation Yrotation Zrotation
							JOINT RightShoulder
							{
								OFFSET -2.196100 4.412496 0.070690
								CHANNELS 3 Xrotation Yrotation Zrotation
								JOINT RightShoulder_split
								{
									OFFSET -2.196100 4.412496 0.070690
									CHANNELS 3 Xrotation Yrotation Zrotation
									JOINT RightArm
									{
										OFFSET -8.771282 -2.981682 -0.094208
										CHANNELS 3 Xrotation Yrotation Zrotation
										JOINT RightForeArm
										{
											OFFSET -8.494598 0.000000 0.000000
											CHANNELS 3 Xrotation Yrotation Zrotation
											JOINT RightHand
											{
												OFFSET -18.483803 0.000000 0.000001
												CHANNELS 3 Xrotation Yrotation Zrotation
												End Site
												{
													OFFSET 0 0 0
												}
											}
										}
									}
								}
							}
						}
					}
				}
			}
		}
	}
}
MOTION
Frames: 5
Frame Time: 0.03333333
-0.273127 32.382309 0.404129 0.000000 0.000000 0.000000 -2.461250 0.434334 -0.489370 -5.810062 2.743656 10.611608 25.717375 2.786504 0.979974 -20.637256 4.447378 -15.492481 2.295719 0.352521 -1.579978 0.000000 0.000000 0.000000 -2.171275 0.206419 -0.499308 0.872567 1.874321 -4.766881 23.183998 1.861341 0.504726 -19.889403 -2.224787 7.128530 3.368042 0.160180 0.617509 0.000000 0.000000 0.000000 -2.183538 -1.219896 -0.683579 0.914364 -1.085237 -0.077651 -1.325424 -0.289469 0.604767 1.154379 0.267340 -0.041377 0.000000 0.000000 0.000000 -1.635465 0.007344 0.524096 -0.466251 0.516790 -0.988619 4.687300 -2.727897 2.906262 0.000000 0.000000 0.000000 -1.679585 0.161248 0.311146 1.422229 -10.764038 -10.126099 -2.592752 0.479267 -2.008594 20.346932 -21.863917 -65.815109 -1.122678 -19.608001 0.794699 0.000000 0.000000 0.000000 -1.270251 0.124200 0.467093 1.661211 5.357243 10.852955 -0.851988 3.207314 -1.812548 6.238237 23.711743 66.227959 0.566218 16.437588 0.652173 0.000000 0.000000 0.000000 
-0.176829 32.429523 0.455055 0.000000 0.000000 0.000000 -2.354139 0.401102 -0.503984 -5.752594 2.414161 10.638423 25.671946 2.956139 1.011517 -20.490390 4.597887 -15.181128 2.246091 0.391196 -1.618516 0.000000 0.000000 0.000000 -2.110843 0.107687 -0.523076 1.330592 1.854494 -4.822571 22.716012 1.826784 0.365447 -19.544060 -2.189140 6.641010 2.696235 0.044539 0.870308 0.000000 0.000000 0.000000 -1.986246 -1.228397 -0.785898 0.743568 -1.033786 0.003962 -1.247995 -0.302402 0.607896 1.228958 0.450141 0.043258 0.000000 0.000000 0.000000 -1.643896 -0.017593 0.542401 -0.543646 0.596182 -0.973022 4.607238 -2.745137 2.772926 0.000000 0.000000 0.000000 -1.657692 0.164848 0.313218 1.414748 -10.822642 -10.244026 -2.505295 0.436629 -1.965208 20.397421 -21.956007 -65.838174 -1.104108 -19.643373 0.684164 0.000000 0.000000 0.000000 -1.232377 0.123573 0.459326 1.665306 5.545294 10.947666 -0.795730 3.290471 -1.787080 6.385250 23.902327 66.066856 0.618664 16.382982 0.652015 0.000000 0.000000 0.000000 
-0.101138 32.475914 0.513624 0.000000 0.000000 0.000000 -2.355328 0.220195 -0.529638 -5.809443 2.371400 10.636715 25.663633 3.320799 1.054509 -20.300159 4.627007 -14.734940 2.190635 0.457762 -1.581959 0.000000 0.000000 0.000000 -2.034477 0.035773 -0.601886 1.865603 1.835561 -4.896179 22.184473 1.859994 0.171609 -19.952845 -2.097335 5.788808 2.569280 0.026353 0.994616 0.000000 0.000000 0.000000 -1.759134 -1.299927 -0.935112 0.655813 -0.946744 0.170800 -1.130503 -0.302325 0.589540 1.260191 0.479941 0.058929 0.000000 0.000000 0.000000 -1.586018 -0.042095 0.532698 -0.565858 0.744287 -1.016599 4.325991 -2.730634 2.678310 0.000000 0.000000 0.000000 -1.596694 0.168126 0.290065 1.406344 -10.933596 -10.380070 -2.467518 0.571247 -1.874643 20.337913 -21.954584 -65.872564 -1.054775 -19.827281 0.578779 0.000000 0.000000 0.000000 -1.156685 0.109424 0.423037 1.699137 5.724631 11.044364 -0.686527 3.398847 -1.799493 6.654364 24.316162 65.654913 0.697529 16.482893 0.636259 0.000000 0.000000 0.000000 
-0.034082 32.492256 0.538940 0.000000 0.000000 0.000000 -2.401403 -0.100253 -0.540938 -5.956011 2.639045 10.502277 25.689504 3.852567 1.102495 -20.194100 4.561757 -14.273823 2.131554 0.540461 -1.445005 0.000000 0.000000 0.000000 -1.896248 -0.066573 -0.664003 2.142076 1.797496 -5.071939 21.889194 1.994933 0.077732 -20.671125 -1.996284 4.946149 2.762111 0.061600 0.944463 0.000000 0.000000 0.000000 -1.537928 -1.438748 -1.053717 0.657872 -0.845312 0.363523 -0.980761 -0.278811 0.551992 1.190225 0.423081 -0.051509 0.000000 0.000000 0.000000 -1.466772 -0.050599 0.500403 -0.541401 0.920857 -1.103529 3.831002 -2.687541 2.646072 0.000000 0.000000 0.000000 -1.506735 0.180758 0.246683 1.393045 -11.082487 -10.515927 -2.534915 0.740131 -1.797232 20.235568 -21.948265 -65.777788 -0.994506 -20.093138 0.465144 0.000000 0.000000 0.000000 -1.052125 0.093722 0.363084 1.767086 5.884396 11.108379 -0.524487 3.496044 -1.839901 6.933724 24.871615 65.086724 0.776485 16.693638 0.618521 0.000000 0.000000 0.000000 
0.030626 32.477928 0.540653 0.000000 0.000000 0.000000 -2.400761 -0.547010 -0.533331 -6.303454 3.117001 10.222002 25.815610 4.523303 1.158718 -20.249371 4.466720 -13.901145 2.099512 0.612593 -1.196004 0.000000 0.000000 0.000000 -1.654386 -0.266280 -0.694805 2.035602 1.691561 -5.292589 21.659976 2.376485 0.110781 -21.232329 -1.979484 4.725033 2.248978 0.069664 0.644549 0.000000 0.000000 0.000000 -1.293552 -1.573250 -1.138955 0.737928 -0.756193 0.517135 -0.798481 -0.232486 0.499756 1.076255 0.297983 -0.146953 0.000000 0.000000 0.000000 -1.297793 -0.033410 0.455429 -0.502980 1.072313 -1.196485 3.131546 -2.616348 2.726668 0.000000 0.000000 0.000000 -1.378623 0.213724 0.194357 1.373864 -11.273175 -10.627439 -2.616880 0.807152 -1.918308 20.142059 -22.024915 -65.466837 -0.929872 -20.447001 0.342639 0.000000 0.000000 0.000000 -0.916796 0.093047 0.297250 1.861079 6.053080 11.132852 -0.344484 3.579525 -1.925078 7.106166 25.513625 64.490516 0.819701 16.986134 0.602230 0.000000 0.000000 0.000000 
